<svg width="37" height="41" viewBox="0 0 37 41" fill="none" xmlns="http://www.w3.org/2000/svg">
<path d="M32.4367 13.57C32.8355 13.57 33.1973 13.744 33.4832 14.038C33.7497 14.352 33.8839 14.742 33.845 15.154C33.845 15.29 32.7791 28.7699 32.1702 34.4438C31.789 37.9258 29.5444 40.0398 26.1774 40.0978C23.5884 40.1558 21.0579 40.1758 18.5662 40.1758C15.9208 40.1758 13.3338 40.1558 10.8227 40.0978C7.56856 40.0198 5.32196 37.8678 4.96017 34.4438C4.33385 28.7499 3.28738 15.29 3.26793 15.154C3.24848 14.742 3.38075 14.352 3.64917 14.038C3.91371 13.744 4.29495 13.57 4.69564 13.57H32.4367ZM22.6881 0.175781C24.4562 0.175781 26.0356 1.40977 26.4927 3.16975L26.8195 4.62974C27.084 5.81973 28.1149 6.66172 29.3014 6.66172H35.1328C35.9109 6.66172 36.5586 7.30771 36.5586 8.1297V8.88969C36.5586 9.69169 35.9109 10.3577 35.1328 10.3577H1.9863C1.20631 10.3577 0.558594 9.69169 0.558594 8.88969V8.1297C0.558594 7.30771 1.20631 6.66172 1.9863 6.66172H7.81772C9.00229 6.66172 10.0332 5.81972 10.2997 4.63174L10.6051 3.26775C11.0797 1.40977 12.6416 0.175781 14.4291 0.175781H22.6881Z" fill="black"/>
</svg>
